# xmcd
#
# Track frame offsets:
#	150
#	49836
#	65680
#	84213
#	107891
#	126063
#	150142
#
# Disc length: 2485 seconds
#
# Revision: 0
# Processed by: cddbd v1.5.2PL0 Copyright (c) Steve Scherf et al.
# Submitted via: audiograbber 1.83.01
#
DISCID=4e09b307
DTITLE=MIKE BLOOMFIELD - DON'T SAY THAT I AINT YOUR MAN CD2
DYEAR=1900
DGENRE=
TTITLE0=Don't Throw Your Love On Me
TTITLE1=Don't Think About It Baby
TTITLE2=It Takes Time
TTITLE3=Carmelita Skiffle
TTITLE4=The Weight
TTITLE5=Green Onions
TTITLE6=Dear Mr Fantasy
EXTD=
EXTT0=
EXTT1=
EXTT2=
EXTT3=
EXTT4=
EXTT5=
EXTT6=
PLAYORDER=
